<svg id="レイヤー_1" data-name="レイヤー 1"
  xmlns="http://www.w3.org/2000/svg" viewBox="0 0 199.46 199.46">
  <circle cx="99.73" cy="99.73" r="95.73" style="fill:transparent;stroke:#fff;stroke-miterlimit:10;stroke-width:8px"/>
  <circle cx="99.73" cy="100.35" r="3.81" style="fill:#fff;stroke:#fff;stroke-miterlimit:10;stroke-width:0.5437265038490295px"/>
  <ellipse cx="63.26" cy="162.9" rx="4.61" ry="4.88" transform="translate(-109.45 136.23) rotate(-60)" style="fill:#fff"/>
  <ellipse cx="136.2" cy="36.56" rx="4.61" ry="4.88" transform="translate(36.44 136.23) rotate(-60)" style="fill:#fff"/>
  <ellipse cx="26.78" cy="99.73" rx="4.61" ry="4.88" style="fill:#fff"/>
  <ellipse cx="172.68" cy="99.73" rx="4.61" ry="4.88" style="fill:#fff"/>
  <ellipse cx="36.56" cy="136.2" rx="4.61" ry="4.88" transform="translate(-63.2 36.53) rotate(-30)" style="fill:#fff"/>
  <ellipse cx="162.9" cy="63.26" rx="4.61" ry="4.88" transform="translate(-9.8 89.93) rotate(-30)" style="fill:#fff"/>
  <ellipse cx="36.56" cy="63.26" rx="4.88" ry="4.61" transform="translate(-36.5 63.29) rotate(-60)" style="fill:#fff"/>
  <ellipse cx="162.9" cy="136.2" rx="4.88" ry="4.61" transform="translate(-36.5 209.18) rotate(-60)" style="fill:#fff"/>
  <ellipse cx="63.26" cy="36.56" rx="4.88" ry="4.61" transform="translate(-9.8 36.53) rotate(-30)" style="fill:#fff"/>
  <ellipse cx="136.2" cy="162.9" rx="4.88" ry="4.61" transform="translate(-63.2 89.93) rotate(-30)" style="fill:#fff"/>
  <ellipse cx="99.73" cy="26.78" rx="4.88" ry="4.61" style="fill:#fff"/>
  <ellipse cx="99.73" cy="172.68" rx="4.88" ry="4.61" style="fill:#fff"/>
  <line class="minute-hand" x1="99.73" y1="100.35" x2="99.73" y2="41" style="fill:none;stroke:#fff;stroke-linecap:round;stroke-miterlimit:10;stroke-width:4.790987074375153px;transform-origin: center;"/>
  <line class="hour-hand" x1="99.73" y1="100.35" x2="99.73" y2="58.5" style="fill:none;stroke:#fff;stroke-linecap:round;stroke-miterlimit:10;stroke-width:4.023160730133441px;transform-origin: center;"/>
</svg>